<svg width="39" height="39" viewBox="0 0 39 39" fill="none" xmlns="http://www.w3.org/2000/svg">
<path d="M26 19.998H21V24.998C21 25.2632 20.8946 25.5176 20.7071 25.7051C20.5196 25.8926 20.2652 25.998 20 25.998C19.7348 25.998 19.4804 25.8926 19.2929 25.7051C19.1054 25.5176 19 25.2632 19 24.998V19.998H14C13.7348 19.998 13.4804 19.8926 13.2929 19.7051C13.1054 19.5176 13 19.2632 13 18.998C13 18.7328 13.1054 18.4784 13.2929 18.2909C13.4804 18.1033 13.7348 17.998 14 17.998H19V12.998C19 12.7328 19.1054 12.4784 19.2929 12.2909C19.4804 12.1033 19.7348 11.998 20 11.998C20.2652 11.998 20.5196 12.1033 20.7071 12.2909C20.8946 12.4784 21 12.7328 21 12.998V17.998H26C26.2652 17.998 26.5196 18.1033 26.7071 18.2909C26.8946 18.4784 27 18.7328 27 18.998C27 19.2632 26.8946 19.5176 26.7071 19.7051C26.5196 19.8926 26.2652 19.998 26 19.998Z" fill="#12C2E9"/>
</svg>
